<svg width="147" height="34" viewBox="0 0 147 34" fill="none" xmlns="http://www.w3.org/2000/svg">
<path d="M26.1273 10.4489L18.9368 9.40392L15.7225 2.88741C15.6347 2.70899 15.4902 2.56456 15.3118 2.47677C14.8644 2.25587 14.3206 2.43995 14.0969 2.88741L10.8825 9.40392L3.69199 10.4489C3.49375 10.4773 3.3125 10.5707 3.17373 10.7123C3.00597 10.8847 2.91352 11.1167 2.91671 11.3573C2.91989 11.5978 3.01845 11.8273 3.19072 11.9952L8.39316 17.0674L7.16406 24.2296C7.13524 24.3962 7.15368 24.5676 7.21728 24.7242C7.28089 24.8809 7.38712 25.0166 7.52392 25.116C7.66073 25.2153 7.82264 25.2744 7.9913 25.2864C8.15995 25.2984 8.3286 25.2629 8.47813 25.184L14.9097 21.8026L21.3412 25.184C21.5168 25.2775 21.7207 25.3086 21.9161 25.2746C22.4089 25.1897 22.7402 24.7224 22.6553 24.2296L21.4262 17.0674L26.6286 11.9952C26.7702 11.8565 26.8637 11.6752 26.892 11.477C26.9685 10.9814 26.623 10.5226 26.1273 10.4489Z" fill="#FFE600"/>
<path d="M55.1273 10.4489L47.9368 9.40392L44.7225 2.88741C44.6347 2.70899 44.4902 2.56456 44.3118 2.47677C43.8644 2.25587 43.3206 2.43995 43.0969 2.88741L39.8825 9.40392L32.692 10.4489C32.4937 10.4773 32.3125 10.5707 32.1737 10.7123C32.006 10.8847 31.9135 11.1167 31.9167 11.3573C31.9199 11.5978 32.0184 11.8273 32.1907 11.9952L37.3932 17.0674L36.1641 24.2296C36.1352 24.3962 36.1537 24.5676 36.2173 24.7242C36.2809 24.8809 36.3871 25.0166 36.5239 25.116C36.6607 25.2153 36.8226 25.2744 36.9913 25.2864C37.16 25.2984 37.3286 25.2629 37.4781 25.184L43.9097 21.8026L50.3412 25.184C50.5168 25.2775 50.7207 25.3086 50.9161 25.2746C51.4089 25.1897 51.7402 24.7224 51.6553 24.2296L50.4262 17.0674L55.6286 11.9952C55.7702 11.8565 55.8637 11.6752 55.892 11.477C55.9685 10.9814 55.623 10.5226 55.1273 10.4489Z" fill="#FFE600"/>
<path d="M84.1273 10.4489L76.9368 9.40392L73.7225 2.88741C73.6347 2.70899 73.4902 2.56456 73.3118 2.47677C72.8644 2.25587 72.3206 2.43995 72.0969 2.88741L68.8825 9.40392L61.692 10.4489C61.4937 10.4773 61.3125 10.5707 61.1737 10.7123C61.006 10.8847 60.9135 11.1167 60.9167 11.3573C60.9199 11.5978 61.0184 11.8273 61.1907 11.9952L66.3932 17.0674L65.1641 24.2296C65.1352 24.3962 65.1537 24.5676 65.2173 24.7242C65.2809 24.8809 65.3871 25.0166 65.5239 25.116C65.6607 25.2153 65.8226 25.2744 65.9913 25.2864C66.16 25.2984 66.3286 25.2629 66.4781 25.184L72.9097 21.8026L79.3412 25.184C79.5168 25.2775 79.7207 25.3086 79.9161 25.2746C80.4089 25.1897 80.7402 24.7224 80.6553 24.2296L79.4262 17.0674L84.6286 11.9952C84.7702 11.8565 84.8637 11.6752 84.892 11.477C84.9685 10.9814 84.623 10.5226 84.1273 10.4489Z" fill="#FFE600"/>
<path d="M113.127 10.4489L105.937 9.40392L102.722 2.88741C102.635 2.70899 102.49 2.56456 102.312 2.47677C101.864 2.25587 101.321 2.43995 101.097 2.88741L97.8825 9.40392L90.692 10.4489C90.4937 10.4773 90.3125 10.5707 90.1737 10.7123C90.006 10.8847 89.9135 11.1167 89.9167 11.3573C89.9199 11.5978 90.0184 11.8273 90.1907 11.9952L95.3932 17.0674L94.1641 24.2296C94.1352 24.3962 94.1537 24.5676 94.2173 24.7242C94.2809 24.8809 94.3871 25.0166 94.5239 25.116C94.6607 25.2153 94.8226 25.2744 94.9913 25.2864C95.16 25.2984 95.3286 25.2629 95.4781 25.184L101.91 21.8026L108.341 25.184C108.517 25.2775 108.721 25.3086 108.916 25.2746C109.409 25.1897 109.74 24.7224 109.655 24.2296L108.426 17.0674L113.629 11.9952C113.77 11.8565 113.864 11.6752 113.892 11.477C113.968 10.9814 113.623 10.5226 113.127 10.4489Z" fill="#FFE600"/>
<g filter="url(#filter0_d_304_279)">
<path d="M134.488 9.62511L134.605 9.86091L134.865 9.89872L142.054 10.9435C142.054 10.9435 142.054 10.9436 142.054 10.9436C142.281 10.9776 142.431 11.1851 142.398 11.4007L142.398 11.4007L142.397 11.4063C142.385 11.4934 142.343 11.5745 142.279 11.6378C142.279 11.6379 142.279 11.638 142.279 11.6381L137.077 16.7094L136.889 16.8929L136.933 17.152L138.162 24.3142L138.163 24.3146C138.2 24.534 138.053 24.7436 137.831 24.7819L137.83 24.782C137.742 24.7973 137.651 24.7827 137.576 24.7426L137.574 24.7414L131.142 21.36L130.91 21.2377L130.677 21.36L124.245 24.7414L124.245 24.7418C124.178 24.7772 124.102 24.793 124.027 24.7877C123.951 24.7823 123.879 24.7559 123.818 24.7114C123.757 24.6669 123.709 24.6062 123.681 24.5361C123.652 24.466 123.644 24.3894 123.657 24.3148L123.657 24.3142L124.886 17.152L124.93 16.8929L124.742 16.7094L119.54 11.6372L119.54 11.6372C119.462 11.5618 119.418 11.4587 119.417 11.3507C119.415 11.2429 119.457 11.139 119.531 11.0616C119.595 10.9974 119.676 10.9563 119.763 10.9439L119.764 10.9437L126.954 9.89872L127.215 9.86091L127.331 9.62511L130.544 3.11102C130.544 3.11067 130.544 3.11033 130.545 3.10998C130.646 2.90787 130.892 2.82693 131.09 2.92511L131.091 2.9254C131.17 2.96446 131.235 3.02878 131.274 3.10817L131.274 3.1086L134.488 9.62511Z" fill="white" stroke="#FFE600"/>
</g>
<defs>
<filter id="filter0_d_304_279" x="112.41" y="0.449219" width="37" height="37" filterUnits="userSpaceOnUse" color-interpolation-filters="sRGB">
<feFlood flood-opacity="0" result="BackgroundImageFix"/>
<feColorMatrix in="SourceAlpha" type="matrix" values="0 0 0 0 0 0 0 0 0 0 0 0 0 0 0 0 0 0 127 0" result="hardAlpha"/>
<feOffset dy="4"/>
<feGaussianBlur stdDeviation="2"/>
<feComposite in2="hardAlpha" operator="out"/>
<feColorMatrix type="matrix" values="0 0 0 0 0 0 0 0 0 0 0 0 0 0 0 0 0 0 0.25 0"/>
<feBlend mode="normal" in2="BackgroundImageFix" result="effect1_dropShadow_304_279"/>
<feBlend mode="normal" in="SourceGraphic" in2="effect1_dropShadow_304_279" result="shape"/>
</filter>
</defs>
</svg>
