 <svg
      width="143"
      height="29"
      viewBox="0 0 143 29"
      fill="none"
      xmlns="http://www.w3.org/2000/svg"
    >
      <path
        d="M25.7178 9.9999L18.5273 8.95488L15.3129 2.43838C15.2251 2.25996 15.0807 2.11553 14.9023 2.02773C14.4548 1.80683 13.9111 1.99092 13.6873 2.43838L10.473 8.95488L3.28245 9.9999C3.0842 10.0282 2.90295 10.1217 2.76418 10.2633C2.59642 10.4357 2.50397 10.6677 2.50716 10.9083C2.51035 11.1488 2.6089 11.3783 2.78118 11.5462L7.98362 16.6184L6.75452 23.7806C6.72569 23.9472 6.74413 24.1185 6.80774 24.2752C6.87134 24.4319 6.97757 24.5676 7.11438 24.6669C7.25119 24.7663 7.4131 24.8253 7.58175 24.8374C7.75041 24.8494 7.91906 24.8139 8.06858 24.735L14.5001 21.3535L20.9317 24.735C21.1073 24.8284 21.3112 24.8596 21.5066 24.8256C21.9993 24.7406 22.3307 24.2733 22.2457 23.7806L21.0166 16.6184L26.2191 11.5462C26.3607 11.4074 26.4541 11.2262 26.4824 11.0279C26.5589 10.5323 26.2134 10.0735 25.7178 9.9999V9.9999Z"
        fill="#FFE600"
      />
      <path
        d="M54.7176 9.99996L47.527 8.95494L44.3127 2.43844C44.2249 2.26002 44.0804 2.11559 43.902 2.02779C43.4546 1.8069 42.9108 1.99098 42.6871 2.43844L39.4727 8.95494L32.2822 9.99996C32.084 10.0283 31.9027 10.1217 31.7639 10.2633C31.5962 10.4358 31.5037 10.6678 31.5069 10.9083C31.5101 11.1489 31.6087 11.3783 31.7809 11.5463L36.9834 16.6184L35.7543 23.7806C35.7254 23.9472 35.7439 24.1186 35.8075 24.2753C35.8711 24.4319 35.9773 24.5676 36.1141 24.667C36.2509 24.7663 36.4129 24.8254 36.5815 24.8374C36.7502 24.8494 36.9188 24.814 37.0683 24.735L43.4999 21.3536L49.9314 24.735C50.107 24.8285 50.3109 24.8596 50.5063 24.8256C50.9991 24.7407 51.3304 24.2734 51.2455 23.7806L50.0164 16.6184L55.2188 11.5463C55.3604 11.4075 55.4539 11.2262 55.4822 11.028C55.5587 10.5324 55.2132 10.0736 54.7176 9.99996V9.99996Z"
        fill="#FFE600"
      />
      <path
        d="M83.7176 9.99996L76.527 8.95494L73.3127 2.43844C73.2249 2.26002 73.0804 2.11559 72.902 2.02779C72.4546 1.8069 71.9108 1.99098 71.6871 2.43844L68.4727 8.95494L61.2822 9.99996C61.084 10.0283 60.9027 10.1217 60.7639 10.2633C60.5962 10.4358 60.5037 10.6678 60.5069 10.9083C60.5101 11.1489 60.6087 11.3783 60.7809 11.5463L65.9834 16.6184L64.7543 23.7806C64.7254 23.9472 64.7439 24.1186 64.8075 24.2753C64.8711 24.4319 64.9773 24.5676 65.1141 24.667C65.2509 24.7663 65.4129 24.8254 65.5815 24.8374C65.7502 24.8494 65.9188 24.814 66.0683 24.735L72.4999 21.3536L78.9314 24.735C79.107 24.8285 79.3109 24.8596 79.5063 24.8256C79.9991 24.7407 80.3304 24.2734 80.2455 23.7806L79.0164 16.6184L84.2188 11.5463C84.3604 11.4075 84.4539 11.2262 84.4822 11.028C84.5587 10.5324 84.2132 10.0736 83.7176 9.99996V9.99996Z"
        fill="#FFE600"
      />
      <path
        d="M112.718 9.99996L105.527 8.95494L102.313 2.43844C102.225 2.26002 102.08 2.11559 101.902 2.02779C101.455 1.8069 100.911 1.99098 100.687 2.43844L97.4727 8.95494L90.2822 9.99996C90.084 10.0283 89.9027 10.1217 89.7639 10.2633C89.5962 10.4358 89.5037 10.6678 89.5069 10.9083C89.5101 11.1489 89.6087 11.3783 89.7809 11.5463L94.9834 16.6184L93.7543 23.7806C93.7254 23.9472 93.7439 24.1186 93.8075 24.2753C93.8711 24.4319 93.9773 24.5676 94.1141 24.667C94.2509 24.7663 94.4129 24.8254 94.5815 24.8374C94.7502 24.8494 94.9188 24.814 95.0683 24.735L101.5 21.3536L107.931 24.735C108.107 24.8285 108.311 24.8596 108.506 24.8256C108.999 24.7407 109.33 24.2734 109.245 23.7806L108.016 16.6184L113.219 11.5463C113.36 11.4075 113.454 11.2262 113.482 11.028C113.559 10.5324 113.213 10.0736 112.718 9.99996V9.99996Z"
        fill="#FFE600"
      />
      <path
        d="M141.718 9.99996L134.527 8.95494L131.313 2.43844C131.225 2.26002 131.08 2.11559 130.902 2.02779C130.455 1.8069 129.911 1.99098 129.687 2.43844L126.473 8.95494L119.282 9.99996C119.084 10.0283 118.903 10.1217 118.764 10.2633C118.596 10.4358 118.504 10.6678 118.507 10.9083C118.51 11.1489 118.609 11.3783 118.781 11.5463L123.983 16.6184L122.754 23.7806C122.725 23.9472 122.744 24.1186 122.807 24.2753C122.871 24.4319 122.977 24.5676 123.114 24.667C123.251 24.7663 123.413 24.8254 123.582 24.8374C123.75 24.8494 123.919 24.814 124.068 24.735L130.5 21.3536L136.931 24.735C137.107 24.8285 137.311 24.8596 137.506 24.8256C137.999 24.7407 138.33 24.2734 138.245 23.7806L137.016 16.6184L142.219 11.5463C142.36 11.4075 142.454 11.2262 142.482 11.028C142.559 10.5324 142.213 10.0736 141.718 9.99996V9.99996Z"
        fill="#FFE600"
      />
    </svg>